<?xml version="1.0" encoding="iso-8859-1"?>
<!-- Generator: Adobe Illustrator 18.0.0, SVG Export Plug-In . SVG Version: 6.00 Build 0)  -->
<!DOCTYPE svg PUBLIC "-//W3C//DTD SVG 1.1//EN" "http://www.w3.org/Graphics/SVG/1.1/DTD/svg11.dtd">
<svg version="1.1" id="Capa_1" xmlns="http://www.w3.org/2000/svg" xmlns:xlink="http://www.w3.org/1999/xlink" x="0px" y="0px"
	 viewBox="0 0 483.115 483.115" style="enable-background:new 0 0 483.115 483.115;" xml:space="preserve">
<path d="M368.111,78.839l-55.102,0v-7.388C313.01,32.054,280.957,0,241.558,0c-39.399,0-71.453,32.054-71.453,71.452v7.388h-55.102
	c-17.183,0-31.162,13.979-31.162,31.162v341.951c0,17.183,13.979,31.162,31.162,31.162h253.108
	c17.182,0,31.161-13.979,31.161-31.162V110.002C399.272,92.819,385.293,78.839,368.111,78.839z M191.105,71.452
	c0-27.819,22.633-50.452,50.453-50.452c27.819,0,50.452,22.633,50.452,50.452v7.388H191.105V71.452z M115.004,99.84h55.102v10.277
	c-17.651,4.655-30.706,20.752-30.706,39.845c0,22.72,18.485,41.205,41.206,41.205s41.206-18.484,41.206-41.205
	c0-11.006-4.286-21.354-12.069-29.136c-5.242-5.242-11.65-8.89-18.637-10.717V99.84H292.01v10.281
	c-17.645,4.659-30.695,20.752-30.695,39.841c0,22.72,18.485,41.205,41.206,41.205c22.721,0,41.206-18.484,41.206-41.205
	c0-11.006-4.286-21.354-12.069-29.136c-5.245-5.245-11.657-8.893-18.648-10.721V99.84l55.102,0c5.603,0,10.161,4.559,10.161,10.163
	v275.765h-273.43V110.002C104.842,104.398,109.401,99.84,115.004,99.84z M180.605,156.064c5.799,0,10.5-4.701,10.5-10.5v-12.847
	c1.356,0.829,2.635,1.805,3.788,2.957c3.817,3.816,5.919,8.89,5.919,14.287c0,11.141-9.064,20.205-20.206,20.205
	s-20.206-9.064-20.206-20.205c0-7.293,3.897-13.677,9.706-17.229v12.832C170.105,151.363,174.807,156.064,180.605,156.064z
	 M302.51,156.064c5.799,0,10.5-4.702,10.5-10.5v-12.854c1.36,0.831,2.643,1.808,3.798,2.964c3.817,3.816,5.919,8.89,5.919,14.287
	c0,11.141-9.064,20.205-20.206,20.205c-11.142,0-20.206-9.064-20.206-20.205c0-7.289,3.893-13.669,9.695-17.223v12.825
	C292.01,151.363,296.711,156.064,302.51,156.064z M368.111,462.115H115.004c-5.603,0-10.162-4.559-10.162-10.162v-45.186h273.43
	v45.186C378.272,457.556,373.714,462.115,368.111,462.115z"/>
<g>
</g>
<g>
</g>
<g>
</g>
<g>
</g>
<g>
</g>
<g>
</g>
<g>
</g>
<g>
</g>
<g>
</g>
<g>
</g>
<g>
</g>
<g>
</g>
<g>
</g>
<g>
</g>
<g>
</g>
</svg>
