<svg width="30" height="30" viewBox="0 0 30 30" fill="none" xmlns="http://www.w3.org/2000/svg">
<path d="M27.7119 29.5763L17.5 19.3644C16.6525 20.0989 15.6638 20.6709 14.5339 21.0805C13.404 21.4901 12.2034 21.6949 10.9322 21.6949C7.88136 21.6949 5.29661 20.6356 3.17797 18.5169C1.05932 16.3983 0 13.8418 0 10.8475C0 7.85311 1.05932 5.29661 3.17797 3.17797C5.29661 1.05932 7.86723 0 10.8898 0C13.8842 0 16.4336 1.05932 18.5381 3.17797C20.6427 5.29661 21.6949 7.85311 21.6949 10.8475C21.6949 12.0621 21.4972 13.2345 21.1017 14.3644C20.7062 15.4944 20.113 16.5537 19.322 17.5424L29.6186 27.7542C29.8729 27.9802 30 28.2698 30 28.6229C30 28.976 29.8588 29.2938 29.5763 29.5763C29.322 29.8305 29.0113 29.9576 28.6441 29.9576C28.2768 29.9576 27.9661 29.8305 27.7119 29.5763ZM10.8898 19.1525C13.178 19.1525 15.1271 18.3404 16.7373 16.7161C18.3475 15.0918 19.1525 13.1356 19.1525 10.8475C19.1525 8.55932 18.3475 6.60311 16.7373 4.97881C15.1271 3.35452 13.178 2.54237 10.8898 2.54237C8.57345 2.54237 6.60311 3.35452 4.97881 4.97881C3.35452 6.60311 2.54237 8.55932 2.54237 10.8475C2.54237 13.1356 3.35452 15.0918 4.97881 16.7161C6.60311 18.3404 8.57345 19.1525 10.8898 19.1525Z" fill="black"/>
</svg>
